PathFileType	4	(X/Y/Z)	jw_ngait_og1.trc	
DataRate	CameraRate	NumFrames	NumMarkers	Units	OrigDataRate	OrigDataStartFrame	OrigNumFrames	
120.00	120.00	4	56	mm	120.00	401	327	
Frame#	Time	Sternum			Neck			RShoulder			LShoulder			Xiphoid			Thoracic			RAsis			LAsis			RPsis			LPsis			Lumbar			RElbow			RWrist			RRadius			RUlna			LElbow			LWrist			LUlna			LRadius			LThighSuperior			LThighInferior			LThighLateral			LPatella			LShankSuperior			LShankInferior			LShankLateral			RThighSuperior			RThighInferior			RThighLateral			RPatella			RShankSuperior			RShankInferior			RShankLateral			RHeel			RToe			RMidfootMedial			RMidfootLateral			RHindfoot			RMidfootSuperior			RToeMedial			RToeLateral			LHeel			LToe			LMidfootMedial			LMidfootLateral			LHindfoot			LMidfootSuperior			LToeMedial			LToeLateral			LShoulderCenter			Oglobal			RShoulderCenter			Sacral			Xglobal			Yglobal			Zglobal			
		X1	Y1	Z1	X2	Y2	Z2	X3	Y3	Z3	X4	Y4	Z4	X5	Y5	Z5	X6	Y6	Z6	X7	Y7	Z7	X8	Y8	Z8	X9	Y9	Z9	X10	Y10	Z10	X11	Y11	Z11	X12	Y12	Z12	X13	Y13	Z13	X14	Y14	Z14	X15	Y15	Z15	X16	Y16	Z16	X17	Y17	Z17	X18	Y18	Z18	X19	Y19	Z19	X20	Y20	Z20	X21	Y21	Z21	X22	Y22	Z22	X23	Y23	Z23	X24	Y24	Z24	X25	Y25	Z25	X26	Y26	Z26	X27	Y27	Z27	X28	Y28	Z28	X29	Y29	Z29	X30	Y30	Z30	X31	Y31	Z31	X32	Y32	Z32	X33	Y33	Z33	X34	Y34	Z34	X35	Y35	Z35	X36	Y36	Z36	X37	Y37	Z37	X38	Y38	Z38	X39	Y39	Z39	X40	Y40	Z40	X41	Y41	Z41	X42	Y42	Z42	X43	Y43	Z43	X44	Y44	Z44	X45	Y45	Z45	X46	Y46	Z46	X47	Y47	Z47	X48	Y48	Z48	X49	Y49	Z49	X50	Y50	Z50	X51	Y51	Z51	X52	Y52	Z52	X53	Y53	Z53	X54	Y54	Z54	X55	Y55	Z55	X56	Y56	Z56	

287	2.383	-1341.86682	156.92354	1317.52185	-1208.22192	158.83043	1434.63379	-1269.92798	335.41217	1380.04419	-1262.80774	-28.61367	1379.49475	-1332.67627	153.27997	1201.08691	-1110.15955	148.82617	1249.23450	-1301.37744	290.90891	974.17413	-1291.89966	17.83461	960.05371	-1085.22644	171.16830	963.76404	-1084.11682	111.89063	960.92822	-1091.71448	151.51913	1032.00183	-1193.42065	433.57962	1057.05994	-1279.20581	419.92496	805.05109	-1295.11353	383.81265	812.50165	-1230.72424	418.20377	803.28094	-1138.37354	-85.04634	1069.64453	-1141.55322	-74.54057	795.24774	-1092.61267	-68.74481	804.94006	-1159.84363	-37.82447	814.70197	-1274.54285	-38.83551	790.36188	-1393.27441	0.97122	575.66547	-1389.09436	25.90993	691.59540	-1460.90332	66.37836	533.70709	-1442.40930	14.36817	446.90625	-1551.41138	33.33524	209.85793	-1525.88269	83.15137	339.59909	-1208.25232	319.64975	787.34778	-1159.86450	268.84805	554.04028	-1235.35925	250.30946	632.22150	-1167.61096	221.66258	480.45566	-1026.80017	275.85544	400.07236	-973.84998	229.44385	170.82123	-1049.65393	197.10861	256.84677	-857.93512	184.32967	74.65092	-1146.74548	249.00980	37.26456	-1074.41211	177.96387	26.32892	-1039.78491	286.98978	37.09001	-958.86145	271.99664	30.85492	-1033.91272	217.96356	104.61044	-1112.82397	197.29218	32.36234	-1097.93152	285.66953	37.01807	-1550.43396	73.09598	42.23883	-1788.49548	55.99370	222.33168	-1726.93335	119.37113	158.28564	-1720.42444	-4.21626	143.48412	-1647.22803	11.85552	71.69688	-1649.70215	56.78799	190.72026	-1759.97693	97.42428	193.52510	-1755.50000	8.84823	179.25337	-1235.75220	-16.70849	1334.61853	0.00000	0.00000	0.00000	-1244.44238	335.19437	1335.88354	-1084.67163	141.52946	962.34613	200.00000	0.00000	0.00000	0.00000	200.00000	0.00000	0.00000	0.00000	200.00000 
288	2.392	-1352.30371	155.89404	1316.27454	-1218.20642	157.82436	1432.78735	-1280.07385	334.53210	1378.87976	-1273.09338	-29.77036	1378.01672	-1343.60889	152.24352	1199.93188	-1121.03564	147.83490	1247.06091	-1314.04932	290.11758	973.04584	-1303.54346	16.61876	958.33313	-1097.39160	170.64461	961.85223	-1096.08545	111.49015	958.73944	-1103.68433	151.17583	1030.00659	-1203.59583	432.45734	1055.73438	-1290.46082	419.54065	804.05231	-1307.01611	383.98294	812.19690	-1242.15771	417.35095	802.02960	-1150.56323	-86.13396	1067.49744	-1152.32593	-75.34312	793.10748	-1103.35229	-70.38268	802.96674	-1169.96887	-38.32888	812.54272	-1287.25647	-39.17390	789.55823	-1406.00403	2.22872	575.60498	-1401.63354	26.66294	693.97064	-1473.67102	65.37436	532.51501	-1453.53345	14.79090	443.87329	-1558.86414	35.23819	205.19708	-1536.15540	83.66405	335.86902	-1219.67285	318.97937	786.27435	-1169.11157	268.96017	553.32678	-1245.33228	250.40567	630.72357	-1176.16992	222.05325	478.77554	-1033.60498	275.62817	401.30994	-976.38373	229.53607	172.64655	-1054.23364	196.86180	257.43192	-859.29419	183.93597	78.46560	-1146.78943	249.37622	36.75341	-1074.92993	178.09799	26.45620	-1040.07239	287.05481	37.17336	-959.14069	271.76578	32.39159	-1035.63635	218.40967	105.18945	-1113.05103	197.52989	32.18801	-1098.01794	285.91754	36.57913	-1556.31970	76.97216	38.07506	-1794.90564	53.54406	215.08180	-1734.40735	119.34118	153.18344	-1726.19336	-3.92846	136.67828	-1654.85278	12.89105	67.16032	-1656.68591	57.27518	185.43256	-1767.64771	95.90585	187.40758	-1761.24695	7.44620	172.29190	-1246.18579	-17.79247	1332.78711	0.00000	0.00000	0.00000	-1254.73254	334.11264	1334.36218	-1096.73853	141.06738	960.29584	200.00000	0.00000	0.00000	0.00000	200.00000	0.00000	0.00000	0.00000	200.00000 
289	2.400	-1362.80054	154.68861	1315.06409	-1228.27380	156.59337	1431.15759	-1290.35315	333.24557	1377.57764	-1283.31702	-31.02621	1376.56824	-1354.53772	150.96452	1198.74377	-1131.89355	147.16869	1244.79785	-1326.84375	289.03336	971.78894	-1315.17529	15.30918	956.71051	-1109.86243	170.06789	959.98785	-1108.01575	111.15474	956.78186	-1115.75439	150.78902	1028.13135	-1213.79004	431.31772	1054.60999	-1301.90320	419.15805	803.41571	-1318.90283	383.76297	811.39417	-1253.53748	416.49155	800.96344	-1162.74976	-87.31837	1065.20984	-1163.41724	-76.21190	790.64490	-1114.48328	-72.13187	801.11597	-1180.84106	-39.33628	810.49255	-1300.04553	-39.68866	788.92108	-1419.25269	3.34958	575.02148	-1414.54126	27.00079	696.27753	-1486.70715	64.78212	531.41443	-1464.44702	15.13346	440.72888	-1565.07629	37.20576	199.91158	-1546.08289	84.14417	331.70380	-1231.05188	318.61777	785.49548	-1178.99146	269.21060	552.52277	-1256.09851	250.73111	629.47845	-1185.42261	222.60394	476.98282	-1041.01831	275.63507	402.42416	-979.25128	229.97945	174.88591	-1059.22986	197.14270	258.06601	-860.99896	183.52611	82.63541	-1146.81519	249.71971	36.16502	-1075.69226	178.31207	26.80159	-1040.52100	287.18036	37.39258	-959.58325	271.51587	34.14436	-1037.54187	218.97414	105.93720	-1113.30640	197.72223	32.00624	-1098.06689	286.17886	36.17617	-1560.17236	81.13733	33.12948	-1800.38416	50.89995	206.84482	-1740.65564	118.45300	146.23845	-1729.56921	-4.42900	128.56346	-1658.45532	14.17416	60.53020	-1662.19080	57.69041	179.08923	-1773.88611	93.95736	180.01140	-1765.56592	5.84134	163.91951	-1256.59937	-18.98609	1331.16040	0.00000	0.00000	0.00000	-1265.19788	332.91705	1332.88306	-1108.93909	140.61131	958.38489	200.00000	0.00000	0.00000	0.00000	200.00000	0.00000	0.00000	0.00000	200.00000 
290	2.408	-1373.46375	153.28267	1314.26648	-1238.24268	155.31592	1429.67542	-1300.75916	331.86609	1376.41223	-1293.31812	-32.41667	1375.24597	-1365.81372	149.52252	1198.01062	-1142.78833	146.43127	1242.76343	-1339.89136	287.37680	971.08881	-1327.16101	13.83059	955.35309	-1122.31836	169.78792	958.08923	-1120.31531	110.92950	954.71698	-1127.98315	149.93245	1026.18176	-1224.39209	430.24127	1053.59290	-1313.43591	418.56677	802.74255	-1330.57910	383.39975	810.94110	-1265.21069	415.48569	800.08038	-1174.98486	-88.62621	1063.14282	-1175.22766	-77.44421	788.68341	-1126.10925	-74.17865	799.39697	-1192.00977	-40.38220	808.39368	-1312.74194	-40.30344	788.04016	-1432.68945	4.56219	574.15179	-1427.53284	27.46364	698.26361	-1499.58276	64.15057	530.09937	-1475.22571	15.38916	436.98184	-1569.91174	39.37853	194.11279	-1555.29468	84.58028	326.96216	-1242.56836	318.23254	784.78296	-1189.55640	269.53360	551.90424	-1267.41663	251.10881	628.71100	-1195.49670	223.42953	475.17963	-1048.96912	275.83081	403.56403	-982.67358	230.03546	177.36348	-1064.45667	197.49403	258.91168	-862.80536	183.07419	87.26350	-1147.12231	249.93405	35.73578	-1076.31091	178.40643	27.00248	-1040.93164	287.19046	37.76482	-960.07788	271.25165	36.25019	-1039.56982	219.31436	106.69633	-1113.57544	197.89052	31.91183	-1098.20325	286.38791	36.05136	-1561.12158	85.19660	28.99766	-1804.92346	48.09915	197.49666	-1744.54346	118.69013	138.51880	-1731.78394	-3.73975	118.93787	-1659.62927	16.79805	53.59148	-1666.23608	58.12953	172.10912	-1778.93835	92.18685	171.59631	-1768.43713	4.43554	154.47430	-1266.98047	-20.27727	1329.72424	0.00000	0.00000	0.00000	-1275.96570	331.61539	1331.60828	-1121.31689	140.35870	956.40308	200.00000	0.00000	0.00000	0.00000	200.00000	0.00000	0.00000	0.00000	200.00000 
